<svg version="1.0" xmlns="http://www.w3.org/2000/svg"
 width="512.000000pt" height="512.000000pt" viewBox="0 0 512.000000 512.000000"
 preserveAspectRatio="xMidYMid meet">
<g transform="translate(0.000000,512.000000) scale(0.100000,-0.100000)"
fill="#FFFFFF" stroke="none">
<path d="M127 5034 c-113 -59 -158 -206 -98 -321 11 -22 509 -527 1213 -1229
1282 -1280 1212 -1216 1318 -1216 106 0 36 -64 1318 1216 704 702 1202 1207
1213 1229 61 117 15 263 -101 322 -64 33 -152 34 -213 4 -29 -14 -385 -363
-1129 -1107 l-1088 -1087 -1087 1087 c-745 744 -1101 1093 -1130 1107 -61 30
-153 28 -216 -5z"/>
<path d="M177 2846 c-60 -16 -115 -60 -147 -117 -32 -56 -35 -164 -6 -219 10
-19 550 -567 1199 -1218 868 -869 1195 -1190 1229 -1208 65 -33 151 -33 216 0
34 18 361 339 1229 1208 649 651 1189 1199 1199 1218 27 51 25 162 -3 216 -41
78 -120 126 -208 127 -109 1 -42 62 -1228 -1122 l-1097 -1096 -1093 1092
c-738 738 -1103 1097 -1127 1107 -55 22 -111 26 -163 12z"/>
</g>
</svg>
