<svg version="1.0" xmlns="http://www.w3.org/2000/svg"
 width="512.000000pt" height="512.000000pt" viewBox="0 0 512.000000 512.000000"
 preserveAspectRatio="xMidYMid meet">
<g transform="translate(0.000000,512.000000) scale(0.100000,-0.100000)"
fill="#FFF" stroke="none">
<path d="M2045 4428 c-35 -9 -157 -127 -902 -871 -504 -503 -870 -876 -879
-896 -24 -49 -29 -113 -14 -168 12 -45 68 -103 869 -906 508 -509 872 -867
896 -880 52 -28 154 -29 205 -3 49 26 88 64 113 111 28 52 29 155 3 205 -10
19 -356 374 -769 788 l-752 752 752 753 c413 413 759 768 769 787 25 48 25
153 0 200 -56 108 -174 160 -291 128z"/>
<path d="M4565 4425 c-22 -8 -42 -15 -45 -15 -3 0 -389 -384 -858 -852 -504
-504 -862 -869 -875 -893 -30 -55 -30 -155 0 -210 27 -50 1704 -1726 1753
-1751 50 -26 153 -25 205 3 52 28 89 67 114 123 25 55 26 110 5 176 -15 45
-84 116 -768 802 l-751 752 751 753 c684 685 753 756 768 801 30 91 16 169
-42 236 -64 76 -172 107 -257 75z"/>
</g>
</svg>
