<svg version="1.0" xmlns="http://www.w3.org/2000/svg"
 width="512.000000pt" height="512.000000pt" viewBox="0 0 512.000000 512.000000"
 preserveAspectRatio="xMidYMid meet">
<g transform="translate(0.000000,512.000000) scale(0.100000,-0.100000)"
fill="#FFFFFF" stroke="none">
<path d="M2455 4326 c-40 -19 -186 -160 -721 -697 -370 -371 -677 -684 -683
-695 -60 -120 -16 -265 104 -339 43 -27 57 -30 124 -30 54 0 86 6 111 19 19
10 290 273 603 584 l567 567 568 -567 c312 -311 583 -574 602 -584 25 -13 57
-19 110 -19 64 0 82 4 121 27 87 51 130 123 132 218 2 112 32 77 -702 814
-540 541 -686 683 -726 702 -67 32 -143 32 -210 0z"/>
<path d="M2500 2807 c-26 -7 -62 -23 -80 -34 -19 -12 -331 -318 -692 -680
-718 -719 -701 -699 -701 -814 0 -141 111 -252 253 -252 112 0 104 -7 718 606
l562 562 563 -562 c614 -614 605 -606 718 -606 141 0 252 111 252 253 0 113
16 95 -706 818 -695 696 -703 703 -802 716 -22 3 -60 -1 -85 -7z"/>
</g>
</svg>
