<svg version="1.0" xmlns="http://www.w3.org/2000/svg"
 width="512.000000pt" height="512.000000pt" viewBox="0 0 512.000000 512.000000"
 preserveAspectRatio="xMidYMid meet">
<g transform="translate(0.000000,512.000000) scale(0.100000,-0.100000)"
fill="#FFF" stroke="none">
<path d="M420 4431 c-108 -35 -180 -128 -180 -233 0 -19 7 -57 16 -84 15 -45
84 -117 768 -802 l751 -752 -751 -753 c-684 -685 -753 -756 -768 -801 -30 -91
-16 -169 42 -236 51 -60 104 -84 182 -84 43 0 77 6 100 18 49 25 1726 1701
1753 1751 15 29 21 58 21 105 0 47 -6 76 -21 105 -27 50 -1705 1727 -1752
1750 -39 19 -125 28 -161 16z"/>
<path d="M2940 4431 c-69 -21 -122 -66 -156 -131 -25 -47 -25 -152 0 -200 10
-19 356 -374 769 -787 l752 -753 -752 -752 c-413 -414 -759 -769 -769 -788
-26 -50 -25 -153 3 -205 25 -47 64 -85 113 -111 51 -26 153 -25 205 3 24 13
388 371 896 880 801 803 857 861 869 906 15 55 10 119 -14 168 -9 20 -375 393
-879 895 -816 815 -865 862 -909 873 -53 12 -91 13 -128 2z"/>
</g>
</svg>
