<svg version="1.0" xmlns="http://www.w3.org/2000/svg"
 width="512.000000pt" height="512.000000pt" viewBox="0 0 512.000000 512.000000"
 preserveAspectRatio="xMidYMid meet">
<g transform="translate(0.000000,512.000000) scale(0.100000,-0.100000)"
fill="#FFFFFF" stroke="none">
<path d="M2475 4040 c-16 -5 -49 -27 -71 -47 -99 -90 -2351 -2568 -2376 -2615
-44 -80 -35 -163 27 -235 68 -80 193 -97 276 -37 22 16 531 567 1131 1224 600
657 1094 1195 1098 1195 4 0 498 -538 1098 -1195 600 -657 1109 -1208 1131
-1224 83 -60 208 -43 276 37 62 72 71 155 28 235 -32 57 -2339 2588 -2403
2636 -33 25 -50 29 -112 32 -40 2 -86 -1 -103 -6z"/>
</g>
</svg>
