<svg version="1.0" xmlns="http://www.w3.org/2000/svg"
 width="512.000000pt" height="512.000000pt" viewBox="0 0 512.000000 512.000000"
 preserveAspectRatio="xMidYMid meet">
<g transform="translate(0.000000,512.000000) scale(0.100000,-0.100000)"
fill="#FFF" stroke="none">
<path d="M3742 5093 c-58 -32 -2590 -2340 -2637 -2404 -28 -38 -30 -47 -30
-129 0 -82 2 -91 30 -129 47 -64 2579 -2372 2637 -2404 80 -43 163 -34 235 28
80 68 97 193 37 276 -16 22 -567 531 -1224 1131 -657 600 -1195 1094 -1195
1098 0 4 543 503 1207 1110 932 851 1212 1112 1228 1145 41 85 17 193 -56 253
-71 59 -154 67 -232 25z"/>
</g>
</svg>
